<svg id="Layer_1" data-name="Layer 1" xmlns="http://www.w3.org/2000/svg" viewBox="0 0 775.3 450.08"><defs><style>.cls-1{opacity:0.4;}.cls-10,.cls-2,.cls-20,.cls-3,.cls-9{fill:#fff;}.cls-17,.cls-3{opacity:0.5;}.cls-4{fill:#1d1f23;opacity:0.1;}.cls-11,.cls-16,.cls-17,.cls-22,.cls-23,.cls-5,.cls-8{fill:#010101;}.cls-5{opacity:0.07;}.cls-6{fill:#a75c42;}.cls-10,.cls-11,.cls-26,.cls-7{opacity:0.15;}.cls-23,.cls-9{opacity:0.05;}.cls-12{fill:#6a9bbc;}.cls-13{fill:#d2d3d4;}.cls-14{fill:#536b81;}.cls-15{fill:#fbbd91;}.cls-16{opacity:0.2;}.cls-18{fill:#616876;}.cls-19{fill:#545464;}.cls-20{opacity:0.3;}.cls-21{fill:#27475c;}.cls-22{opacity:0.25;}.cls-24{fill:#262d3a;}.cls-25,.cls-27,.cls-28{fill:#ecc94b;}.cls-26{fill:#f9cbdf;}.cls-27{font-size:21px;}.cls-27,.cls-28{font-family:FiraCode-Bold, Fira Code;font-weight:700;}.cls-28{font-size:23px;}</style></defs><g class="cls-1"><path class="cls-2" d="M566.61,43h-6.5V33.58h6.5Zm-5-1.53h3.44V35.11h-3.44Z" transform="translate(-39.72 -7.88)"/><path class="cls-2" d="M808.44,193.32l-6.3-4.54,6.58-9.13,6.3,4.53Zm-3.75-4.95,3.33,2.4,4.45-6.17-3.33-2.41Z" transform="translate(-39.72 -7.88)"/><path class="cls-3" d="M638.29,132.23l-4.16,1.23-1.79-6,4.16-1.23Zm-3.47,0,2.2-.65-1.21-4.08-2.2.65Z" transform="translate(-39.72 -7.88)"/><path class="cls-3" d="M45.67,182.29l-4.16,1.23-1.79-6,4.16-1.24Zm-3.47,0,2.2-.65-1.21-4.08-2.2.65Z" transform="translate(-39.72 -7.88)"/><path class="cls-2" d="M654.59,296.32l-4.16,1.23-1.79-6,4.16-1.23Zm-3.47,0,2.2-.65-1.21-4.08-2.2.65Z" transform="translate(-39.72 -7.88)"/><path class="cls-2" d="M49,270.83l-6.3-4.53,6.58-9.14,6.3,4.54Zm-3.75-4.95,3.33,2.41L53,262.11l-3.33-2.4Z" transform="translate(-39.72 -7.88)"/><path class="cls-2" d="M67.28,311.66l-4.17,1.23-1.79-6,4.16-1.23Zm-3.48,0L66,311l-1.22-4.08-2.2.65Z" transform="translate(-39.72 -7.88)"/><path class="cls-2" d="M604,240.35l-4.16,1.24-1.8-6,4.17-1.23Zm-3.47,0,2.2-.66-1.21-4.08-2.21.66Z" transform="translate(-39.72 -7.88)"/><path class="cls-2" d="M726.77,146.32l-7.68-1.1,1.61-11.15,7.68,1.11Zm-5.61-2.65,4.06.59,1.09-7.53-4.07-.59Z" transform="translate(-39.72 -7.88)"/><rect class="cls-3" x="586.05" y="181.39" width="1.83" height="11.26"/><rect class="cls-3" x="49.1" y="201.92" width="1.83" height="11.26"/><rect class="cls-2" x="414.4" y="34.2" width="11.26" height="1.83" transform="translate(210.11 412.84) rotate(-70.96)"/><rect class="cls-3" x="716.92" y="216.46" width="1.34" height="8.24" transform="translate(-69.82 145.33) rotate(-11.94)"/><rect class="cls-2" x="508.74" y="64.85" width="1.83" height="11.26" transform="translate(-43.64 93.53) rotate(-11.32)"/><rect class="cls-2" x="241.29" y="7.95" width="1.83" height="11.26" transform="translate(-37.67 39.92) rotate(-11.32)"/><rect class="cls-3" x="752.49" y="8.44" width="2.45" height="15.08"/><path class="cls-2" d="M587.79,114.57l-4.53,1.7-2.47-6.57,4.53-1.7Zm-3.87.24,2.4-.9-1.66-4.44-2.4.9Z" transform="translate(-39.72 -7.88)"/><path class="cls-2" d="M225.28,88.53,221,86.27l3.28-6.21,4.28,2.26Zm-2.74-2.73L224.81,87,227,82.8l-2.27-1.2Z" transform="translate(-39.72 -7.88)"/><path class="cls-2" d="M642,67l-4.13,1.55-2.25-6L639.74,61Zm-3.52.21,2.19-.82-1.52-4.05-2.19.82Z" transform="translate(-39.72 -7.88)"/><path class="cls-3" d="M713.88,27.21l-5.57-1.52,2.2-8.08,5.57,1.51ZM710,24.74l2.95.8,1.48-5.46-2.95-.81Z" transform="translate(-39.72 -7.88)"/><rect class="cls-2" x="804.24" y="110.62" width="1.36" height="8.38" transform="translate(-28.74 282.24) rotate(-20.57)"/><rect class="cls-2" x="790.46" y="296.82" width="8.38" height="1.36" transform="translate(4.45 685.53) rotate(-48.34)"/><rect class="cls-2" x="397.66" y="80.81" width="1.36" height="8.38" transform="translate(-44.18 137.52) rotate(-20.57)"/><rect class="cls-2" x="607.8" y="27.2" width="1.36" height="8.38" transform="translate(-40.34 8.43) rotate(-1.53)"/><path class="cls-2" d="M58.23,40.89h-6.5V31.46h6.5Zm-5-1.53h3.45V33H53.26Z" transform="translate(-39.72 -7.88)"/><rect class="cls-2" x="99.43" y="25.08" width="1.36" height="8.38" transform="translate(-40.47 -5.18) rotate(-1.54)"/><rect class="cls-3" x="780.46" y="73.11" width="0.99" height="6.13" transform="translate(41.7 423.75) rotate(-32.51)"/><rect class="cls-2" x="151.35" y="87.26" width="1.83" height="11.26" transform="translate(-54.98 23.81) rotate(-11.32)"/><path class="cls-2" d="M130.78,130.87l-4.53,1.7L123.78,126l4.53-1.7Zm-3.87.24,2.4-.9-1.67-4.44-2.39.9Z" transform="translate(-39.72 -7.88)"/><rect class="cls-2" x="65.1" y="137.49" width="1.82" height="11.22" transform="translate(-85.8 24.45) rotate(-20.57)"/></g><ellipse class="cls-4" cx="381.02" cy="404.04" rx="302.52" ry="46.04"/><path class="cls-5" d="M395,452.91c170.43,0,222.24-9.11,250.15-35.57,12.38-11.74-2.38-27.89-35.47-55H82.59C136.62,423.68,219.56,452.91,395,452.91Z" transform="translate(-39.72 -7.88)"/><path class="cls-5" d="M487.55,244.25c-119.17-59.81-105.67-113.46-252.9-113.46-62.45,0-129.59,55.09-151.39,134.74-8.13,29.72-7,67.32-.67,96.83H609.68C594.76,323.15,553.83,277.52,487.55,244.25Z" transform="translate(-39.72 -7.88)"/><path class="cls-4" d="M745.09,431.69c0,3.07-31.27,5.56-55.32,5.56S658,434.76,658,431.69s7.73-5.56,31.79-5.56S745.09,428.62,745.09,431.69Z" transform="translate(-39.72 -7.88)"/><path class="cls-6" d="M288.06,95.6c-61.4,0-124.73,62.9-149.4,145.66s-21.52,183.81,134.48,201.1,308.19.49,357.19-31.26S646.76,275.66,532,213.51,432.78,95.6,288.06,95.6Z" transform="translate(-39.72 -7.88)"/><g class="cls-7"><path class="cls-8" d="M585.51,426.13a1.07,1.07,0,0,1-.35-.06,1,1,0,0,1-.59-1.29,47.52,47.52,0,0,0,1.69-5.57,1,1,0,0,1,2,.47,54.37,54.37,0,0,1-1.76,5.8A1,1,0,0,1,585.51,426.13Z" transform="translate(-39.72 -7.88)"/><path class="cls-8" d="M588.89,407.89h0a1,1,0,0,1-1-1c0-.91.05-1.83.05-2.75a86.87,86.87,0,0,0-.57-9.77,1,1,0,0,1,2-.22,88.27,88.27,0,0,1,.58,10c0,.95,0,1.89-.05,2.82A1,1,0,0,1,588.89,407.89Zm-2.72-25.16a1,1,0,0,1-1-.77,122.75,122.75,0,0,0-3.51-12.09,1,1,0,0,1,.62-1.27,1,1,0,0,1,1.27.62,123.92,123.92,0,0,1,3.57,12.28,1,1,0,0,1-.74,1.2Zm-8.22-24a1,1,0,0,1-.91-.59c-1.71-3.8-3.62-7.59-5.67-11.25a1,1,0,1,1,1.75-1c2.07,3.71,4,7.55,5.75,11.41a1,1,0,0,1-.51,1.33A1,1,0,0,1,578,358.75Zm-12.4-22.11a1,1,0,0,1-.82-.44c-2.41-3.52-5-6.89-7.61-10a1,1,0,0,1,1.53-1.29c2.68,3.19,5.28,6.62,7.73,10.19a1,1,0,0,1-.83,1.57ZM549.2,317.28a1,1,0,0,1-.69-.27,91,91,0,0,0-9.65-8,1,1,0,0,1,1.16-1.63,94,94,0,0,1,9.87,8.18,1,1,0,0,1-.69,1.73ZM528.56,302.7a1.12,1.12,0,0,1-.43-.1,55.32,55.32,0,0,0-11.72-4.14,1,1,0,0,1-.75-1.2,1,1,0,0,1,1.2-.75A57.86,57.86,0,0,1,529,300.79a1,1,0,0,1-.43,1.91Z" transform="translate(-39.72 -7.88)"/><path class="cls-8" d="M498.14,298a1,1,0,0,1-.18-2,47.53,47.53,0,0,1,6-.69,1,1,0,1,1,.09,2,43.38,43.38,0,0,0-5.77.66Z" transform="translate(-39.72 -7.88)"/></g><path class="cls-9" d="M259.25,294.88c5.27,5.07,13,11.17,34,11s42.28-2.39,80.73,13.22-55.23,8.4-71.89,5.26-36.84-11.21-52.67-25.26-35.83-22.26-45-26.66,1.07-4.56,13.5-1.56S245.09,281.21,259.25,294.88Z" transform="translate(-39.72 -7.88)"/><path class="cls-10" d="M368.09,317.88c8.66,4.17-2.16,3-13.92.33s-40.42-6.5-59.08-8.66-26.67-5.25-30.59-7.67-1.25-2.67.59-1.5,6.91,5.67,29.16,6.08,30.66-1.36,51.84,4.34S368.09,317.88,368.09,317.88Z" transform="translate(-39.72 -7.88)"/><path class="cls-9" d="M217.25,303.38s18.44,16,66,29c0,0-22.78,24-28.87,62.5-12.6,7.5-54.1-6-59.6-24S208.25,307.88,217.25,303.38Z" transform="translate(-39.72 -7.88)"/><path class="cls-10" d="M217.25,303.38c1.88,11.12,27.88,23,66,29C235.69,319.38,217.25,303.38,217.25,303.38Z" transform="translate(-39.72 -7.88)"/><path class="cls-11" d="M129.05,335.44c47.89,72,140.89,96.22,265.73,97.5,124.31,1.28,234.43-35,255.15-87.2,6.53,28.45,0,52.67-19.6,65.36-49,31.75-201.19,48.54-357.19,31.26C174.84,431.46,137.25,387.31,129.05,335.44Z" transform="translate(-39.72 -7.88)"/><path class="cls-10" d="M138.66,241.26c24.67-82.76,88-145.66,149.4-145.66,144.72,0,129.27,55.76,244,117.91,61.09,33.1,98.88,78,113.46,117.51-27.56-48.67-79.65-92.66-102.18-94.86-28.57-2.79-57-15.57-68.5-37.45S449.5,165.36,446.66,172c-.92,2.17-3.32,4.78-6,4.39-1.23-.18-1.42-.92-1.87-1.88a8.73,8.73,0,0,1-1-2.12A4.67,4.67,0,0,1,438,170a7.65,7.65,0,0,1,3-3.67,43.15,43.15,0,0,1,4.21-2.35c1.58-.85,3.2-2,3.76-3.68a4.19,4.19,0,0,0-.9-4,4.48,4.48,0,0,0-3.92-1.36,11.15,11.15,0,0,1-2.48.4c-1.79-.15-2-1.9-2.92-3.07s-2-2.46-3.05-3.62a77.33,77.33,0,0,0-7.29-6.85c-4.72-3.94-9.86-7.9-15.41-10.61-7.53-3.67-4.31.84-8.54,1.34s-2.93-3.83-3-6.25C399,115,361.08,100.36,297.16,97.64s-98.5,71.22-100.91,73.72-7.17.25-12.92-1.59-11.26.74-12,4.25,3.08,4.42,9.83,3.5,11,1.5,7.87,2c-7.3,1.67-15.87,14.84-19.87,25.67s-14.5,6.5-16.16,10.67-.67,10.16,17.16,2.46,42.49,4,26.5,2.59S160,226,154.33,239.17c-20,52.48-24.33,118.83,3.81,156.58C118.5,354.56,122.89,294.17,138.66,241.26Z" transform="translate(-39.72 -7.88)"/><path class="cls-11" d="M614.53,360.05c-17.2-38.19-20.7-120.49-94.7-102.59s-91.64-28.91-94.07-45.26a21.72,21.72,0,0,1-.22-3.12c0-5.73,1.33-11.5,3-17,.93-3.05,2-6,2.84-9.09s1.93-6.37,3.11-9.49c1.29-3.41,2.95-7,6.13-8.77a38.82,38.82,0,0,1,4.06-1.66,6.31,6.31,0,0,0,3.32-2.72,3,3,0,0,0-.9-3.87c-2.67-1.5-6.67,2.17-8.51,3.81a35.15,35.15,0,0,0-6.92,8.53c-6.83,11.66-13.15,27.33-31.07,15.66a19.58,19.58,0,0,1-4.69-4.66c-4.74-6.93-5.24-16.25-4.58-24.35a72.45,72.45,0,0,1,2.49-13.78c1.17-4.19,2.56-9,5.2-12.49a8.57,8.57,0,0,0,1.21-2,2.83,2.83,0,0,0,0-2.23,2.14,2.14,0,0,0-2-1.17c-1.52.08-1.75,1.38-2.19,2.53-.56,1.44-1.06,2.9-1.52,4.37-5.72,18.07-15.49,34.85-32.73,36.33s-21.72-14.29-14.6-35.36c3.32-9.86,7.31-21.08,5.82-30.89-17.51-3.41-38.58-5.27-65-5.27-15.32,0-30.77,3.92-45.7,11.09,19.18-3.76,31.16,3.9,34,12.27,3.29,9.66,8.29,2.65,14.63,7.69s1,14.87,3,18.79-6.13,10.75-13.4,9.75-5.94-8.84-10.77-12.09-8.94,3.52-3.05,8.56,2.05,13.86-6.45,14.86-15.67,8.17-13.67,18.67,1.5,27-4.66,29.17-21.92-40.75-65.17-40.75c-6.69,0-4.75,4.75,1,3.75s24.61-.69,40.94,15.31,18.23,31.47,18.89,38.25-2,11.26-13.66.35-37-28-63.34-14.6c-6,3-4,6.37,3,2.86a45.28,45.28,0,0,1,44.35,2.6c19.34,12.05,42,42.23,48,60.35-6.13-3.12-41.46-22.6-82.3-22.6-6.5,0-6.33,7.14,2.67,5.81s27.17-2,52.67,7.67,28.86,20.81,39.35,25.74c6.35,3,17.23,5.17,29.9,5.29,56.17-1,66.26,13.66,122.69,28.4,10.66,2.78,23.3,1.51,36.84-1.43,39.05-8.5,55.05-43,110.55.5,50.78,39.8,49.14,75.4,34.37,92.08a142.1,142.1,0,0,0,24.69-11C629.23,403.08,626.54,386.7,614.53,360.05Z" transform="translate(-39.72 -7.88)"/><path class="cls-12" d="M395.85,157.81c21,7.89,28.9,43.17,44.07,49.94S446.11,237,418.19,237,354,142.09,395.85,157.81Z" transform="translate(-39.72 -7.88)"/><path class="cls-12" d="M443,209.61c7.57-.21,23-1.19,30,6.44s1.49,29.66-25.15,34.24-34.65-17.7-30-24.95S433.18,209.87,443,209.61Z" transform="translate(-39.72 -7.88)"/><path class="cls-13" d="M578.48,211.88l-105.81,10a4.4,4.4,0,0,1-4.45-4.88l7.85-99.75a5.43,5.43,0,0,1,5.31-4.88l105.8,10c2.7,0,6.93,1.56,6.7,4.26L586,206.38C585.79,209.08,581.17,211.88,578.48,211.88Z" transform="translate(-39.72 -7.88)"/><rect class="cls-13" x="390.91" y="234.07" width="95" height="5.48" transform="translate(896.98 226.1) rotate(151.3)"/><path class="cls-13" d="M465.68,218.69a4.37,4.37,0,1,0,4.36-4.37A4.37,4.37,0,0,0,465.68,218.69Z" transform="translate(-39.72 -7.88)"/><path class="cls-14" d="M581.79,213.06,477,223.06a4.39,4.39,0,0,1-4.41-4.89l7.77-99.75a5.41,5.41,0,0,1,5.26-4.88l104.78,10a4.39,4.39,0,0,1,4.41,4.88L587,208.17A5.4,5.4,0,0,1,581.79,213.06Z" transform="translate(-39.72 -7.88)"/><path class="cls-2" d="M531.78,164.24a3.36,3.36,0,1,0,3.32,3.41A3.37,3.37,0,0,0,531.78,164.24Zm-.07,5a1.68,1.68,0,1,1,1.7-1.65A1.68,1.68,0,0,1,531.71,169.28Z" transform="translate(-39.72 -7.88)"/><path class="cls-2" d="M524.13,164.13a3.36,3.36,0,1,0,3.31,3.41A3.36,3.36,0,0,0,524.13,164.13Zm-.08,5a1.68,1.68,0,1,1,1.71-1.66A1.68,1.68,0,0,1,524.05,169.17Z" transform="translate(-39.72 -7.88)"/><path class="cls-2" d="M536,167.55v.12a3.37,3.37,0,0,0,3.31,3.41l2.52,0,0-1.68-2.52,0a1.69,1.69,0,0,1-1.66-1.71v-.11a1.69,1.69,0,0,1,1.71-1.66l2.52,0,0-1.68-2.52,0A3.37,3.37,0,0,0,536,167.55Z" transform="translate(-39.72 -7.88)"/><polygon class="cls-2" points="521.62 156.69 521.59 158.38 524.11 158.41 524.04 163.51 525.72 163.53 525.79 158.44 528.31 158.47 528.34 156.79 521.62 156.69"/><path class="cls-2" d="M561.07,168.7c-1.19-.19-1.61.32-1.61.32s.4-.32,1.46,0a1.51,1.51,0,0,0,1.61-.48S562.19,168.89,561.07,168.7Z" transform="translate(-39.72 -7.88)"/><path class="cls-2" d="M561,167a1.14,1.14,0,0,0-1.22.16C560.51,167,561.68,167.31,561,167Z" transform="translate(-39.72 -7.88)"/><path class="cls-2" d="M560.53,167.81h.18l1,0A2.3,2.3,0,0,0,560.53,167.81Z" transform="translate(-39.72 -7.88)"/><path class="cls-2" d="M557.41,168.47h.07c.87-.33,1.88-.2,2.78-.63a6.72,6.72,0,0,1-2.46-.46l-.12,0-.25-.07a1.74,1.74,0,0,1,1.65-1.11l1.34,0s-.64-1.56-1.93-1.82-1.11-.87-1.11-.87h-.45l-1.21.05-1.21.08h-.11l0,.05c-.21.25-.43.49-.64.75l-.52.65a5.63,5.63,0,0,0-1.12-.5,10,10,0,0,0-7.53,1.37l0-1.58-1.68,0-.1,6.72,1.68,0,0-1.58a10,10,0,0,0,7.48,1.6,6.26,6.26,0,0,0,1.13-.47l1.16,1.48h.11l1.21.12.61,0,.6,0,.44,0a1.84,1.84,0,0,1,1.32-1.05,3.63,3.63,0,0,0,1.81-1.66l-1.35,0A1.74,1.74,0,0,1,557.41,168.47Zm-1.49.48c0,.35.06.7.1,1s.11.7.19,1a2,2,0,0,0,0,.24c0,.11,0,.21.07.32h-.12l-.61,0-1.14.07h0l-1.34-1.39a4.31,4.31,0,0,1-.6.22c-.21,0-.43.1-.64.13a6.66,6.66,0,0,1-1.33.09l-.33,0-.33,0c-.22,0-.43-.07-.64-.13a6.4,6.4,0,0,1-1.23-.43,6.51,6.51,0,0,1-1.1-.68,6,6,0,0,1-.94-.88,7.7,7.7,0,0,1-.6-.81A6,6,0,0,1,546,167a5.69,5.69,0,0,1,1-.86,6.5,6.5,0,0,1,1.12-.64,5.8,5.8,0,0,1,1.24-.4c.21-.05.43-.08.65-.11l.33,0,.32,0A6.59,6.59,0,0,1,552,165a5.2,5.2,0,0,1,.84.22,1.71,1.71,0,0,1,.39.17l1.38-1.36,1.14.11.73,0c0,.07,0,.14-.05.21l-.09.35c-.09.34-.15.68-.21,1a13.3,13.3,0,0,0-.19,2.08C555.9,168.25,555.9,168.6,555.92,169Z" transform="translate(-39.72 -7.88)"/><path class="cls-2" d="M517.31,164l-4.2-.06-.05,3.36,0,1.68,0,1.73,1.68,0,0-1.74,1.68,0h.84a.84.84,0,0,1,.82.85v.9l1.68,0v-.89a2.5,2.5,0,0,0-.61-1.69,2.53,2.53,0,0,0-1.82-4.23Zm0,3.36h-.84l-1.68,0,0-1.68,2.52,0a.84.84,0,0,1,0,1.68Z" transform="translate(-39.72 -7.88)"/><path class="cls-9" d="M585.68,211.24a5.3,5.3,0,0,0,1.36-3.07l7.78-79.75a4.39,4.39,0,0,0-4.41-4.88l-42.54-4.06c4.2,9.66,18.8,16.69,30.55,18.9,14.17,2.67,11.17,26.5,10.17,38.17C587.6,188,585.74,210.51,585.68,211.24Z" transform="translate(-39.72 -7.88)"/><path class="cls-9" d="M500.71,175.38c-7.32,3-16.69,4.24-25.2,5.4l-1.1,14.11c30.88-8,77.2-9.73,113.71,2.29l1.14-11.74c-45.07-9.17-95.17-48.64-86.85-70.3h0l-16.78-1.6a5.41,5.41,0,0,0-5.26,4.88l-1.08,14C499.29,144.3,517.45,168.46,500.71,175.38Z" transform="translate(-39.72 -7.88)"/><path class="cls-15" d="M336.15,143.25a62.83,62.83,0,0,1-18.7,9,39.5,39.5,0,0,1-13.72,1.3c.58-16.75-2.89-26-18.79-41.79-11.73-11.62,38.27-23.91,45.25-11.48C335.39,109.5,333.51,129.66,336.15,143.25Z" transform="translate(-39.72 -7.88)"/><path class="cls-11" d="M303.73,153.51c.07-2.27.08-4.41,0-6.44,5.34,6.12,24.27,3.09,24.84-5.74.64-9.84-6.8-12.83-24.14-20.82-9.89-4.56-16.79-9.84-20.63-14.61,5.09-9.25,40.61-16,46.41-5.66,5.2,9.26,3.32,29.42,6,43a62.83,62.83,0,0,1-18.7,9A39.5,39.5,0,0,1,303.73,153.51Z" transform="translate(-39.72 -7.88)"/><path class="cls-12" d="M300.33,157.19c2.1-8.32,1.75-8.08.12-13.58s7.31-17.28,32.89-13.79c16.56,2.27,13,12.52,19.5,17.14,9.72,6.88,10,17.9-8.77,23.15S296.72,171.44,300.33,157.19Z" transform="translate(-39.72 -7.88)"/><path class="cls-12" d="M288.57,157.32c35.94-8.08,44.68-15.14,84.23-8.17,41.94,7.39,49.86,41.54,47.86,53.54-3,6.5,2.67,26.74,28.15,34.74,30.83,9.67,56.29,70.13-.15,78.12-14.3,2-50.33,13.08-109.83-18.06S238,168.69,288.57,157.32Z" transform="translate(-39.72 -7.88)"/><path class="cls-11" d="M301.05,140.21c3.16-1.85,2.93,1.43,2.23,6,2.3-2.33,6.43-3.25,6.43-3.25a9.44,9.44,0,0,0-5.39,6.14c-1.46,4.78-2.63,5.42-10.87,7.29s-11.16,3.19-11.16,3.19,17.17-3.95,26.79-3.2S316,151,331.22,153c16,2.17,16.94.64,23.2,0,4.79-.48,1.62-.45-3-4.14-7.11-8.27-5.57-24.22-31.13-20.11C303.29,131.5,301.05,140.21,301.05,140.21Z" transform="translate(-39.72 -7.88)"/><path class="cls-16" d="M295.85,184.52c3.15,9.5,2.15,20,.65,26.17s4.44-.67,7.63-5.83,4.19-1.61.53,2.94-5.5,10.06-4.83,12.22,4.17,6.32,11.17-1.17,16.83-12.83,21-12.66-1.67,3-6.5,5.67-15.67,13.86-15.5,21.51,10.48,5.65,13.74,2.82,2.42,2.25-1.16,5.21-5.51,10.2,6.7,18.5,30.51,19.82,46.61,16.3c11.83-2.58,39.08-36.95,77-37.18,28.85,13.37,49.69,68.9-4.23,76.53-14.3,2-50.33,13.08-109.83-18.06-40.56-21.23-72.67-73.37-73-108Z" transform="translate(-39.72 -7.88)"/><path class="cls-10" d="M303.93,269.94a168,168,0,0,1-19.23-25.43c-2.78-13.95-3.84-38.4,15.21-58.48,26.17-27.59,94.67-32.16,112.51-13,7,10.41,9,21.52,8.43,28.08-.52-10.79-12.44-16.93-40.93-12C327.21,198.36,297,207.85,303.93,269.94Z" transform="translate(-39.72 -7.88)"/><path class="cls-10" d="M372.8,149.15c41.94,7.39,49.86,41.54,47.86,53.54-3,6.5,2.67,26.74,28.15,34.74a37.53,37.53,0,0,1,9.85,4.88c-67.93-11.58-30.27-43.44-45.19-64.9-13.61-19.57-29.2-25.34-79.09-30.51C344.58,145.76,355.86,146.16,372.8,149.15Z" transform="translate(-39.72 -7.88)"/><rect class="cls-13" x="392.98" y="242.15" width="61.36" height="5.48" transform="translate(873.16 248.35) rotate(151.3)"/><rect class="cls-17" x="408.05" y="251.36" width="9.2" height="2.5" transform="translate(856.2 268.15) rotate(151.3)"/><rect class="cls-17" x="419.64" y="245.18" width="9.2" height="2.5" transform="translate(874.98 250.98) rotate(151.3)"/><rect class="cls-17" x="431.23" y="239" width="9.2" height="2.5" transform="translate(893.76 233.81) rotate(151.3)"/><rect class="cls-17" x="445.37" y="231.62" width="4.08" height="4.9" transform="translate(912.55 216.63) rotate(151.3)"/><path class="cls-14" d="M393.6,237.75h88.77a6.24,6.24,0,0,1,6.24,6.24v1.7a0,0,0,0,1,0,0h-95a0,0,0,0,1,0,0v-7.94a0,0,0,0,1,0,0Z" transform="translate(904.38 234.03) rotate(151.3)"/><circle class="cls-17" cx="414.88" cy="221.93" r="1.13"/><path class="cls-17" d="M457.52,227.59a1.14,1.14,0,1,0,1.14-1.13A1.14,1.14,0,0,0,457.52,227.59Z" transform="translate(-39.72 -7.88)"/><circle class="cls-17" cx="423" cy="217.49" r="1.13"/><path class="cls-18" d="M663.13,395.35a21.73,21.73,0,0,1,13.46-.43s6.54,9,12.86,8.13,10.33-2.31,15.51,3.21c-8.39,8.27-25.14,15.4-34.09,7.23S663.13,395.35,663.13,395.35Z" transform="translate(-39.72 -7.88)"/><path class="cls-19" d="M737.89,400.27c-6-7.44-17.17-10.09-27.5-4.15-12.87,5.51-23.39,19.15-43.57-7.28-10.91-3.4-13.26,15-13.26,15,4.72,6,4.49,9.43,4.49,9.43s2.68,13.34,6.39,18.08c5.22,3,33.62,3.17,71.2-21.64C737.51,408.37,739.26,404.43,737.89,400.27Z" transform="translate(-39.72 -7.88)"/><path class="cls-19" d="M655.13,235a12.53,12.53,0,0,0,5.51,13.16l10.5.73a15.26,15.26,0,0,0,7.39,2.65c4,.18,8.73-5.48,16.4-19.77,9.49-17.67,18-44.51-8.3-53.83-4.16-1.48-11,6.51-14.36,15.83,0,0,6.33,25.57-14.63,33.77A29.7,29.7,0,0,0,655.13,235Z" transform="translate(-39.72 -7.88)"/><path class="cls-18" d="M672.82,207.51c-.29,2.4,1.89,2.86,1.09,5.52s-6.4,13.87-14.61,15.52c-2.75,2-3,8.8-3,8.8s-2.29-7.84,0-11.28c3.81-.67,9.88-6.14,12.09-10.6S670.59,207.4,672.82,207.51Z" transform="translate(-39.72 -7.88)"/><path class="cls-20" d="M694.93,231.76c-7.67,14.29-12.39,20-16.4,19.77a13.7,13.7,0,0,1-5.1-1.35h0c5.1,1.35,17.81-14,23.63-30.41s4.59-35.89-10.43-41.84C712.92,187.25,704.42,214.09,694.93,231.76Z" transform="translate(-39.72 -7.88)"/><path class="cls-20" d="M672.27,193.76c3.31-9.32,10.2-17.31,14.36-15.83,13.93,4.94,18.09,14.8,17.51,25.61a13.46,13.46,0,0,1-3.9.54C679.85,204,672.27,193.76,672.27,193.76Z" transform="translate(-39.72 -7.88)"/><path class="cls-21" d="M552.13,235.2c15.72,13.81,20,21.07,53.94,15.21,24.78-4.27,49.28-4.07,60.73-3.65,4.26.15,10.69-13.85-5.43-17.33S596.52,219,564.61,202.81c-13.88-7.85-19.82-7.89-25.15-5.35S539.67,224.25,552.13,235.2Z" transform="translate(-39.72 -7.88)"/><path class="cls-11" d="M666.8,246.76c-5-.19-12.63-.33-21.65-.07h0c8.8-1.84,13.55-10.3,13.91-12.13s-5.25-1.93-4.45-6.47c2.63.5,4.92.95,6.76,1.34C677.49,232.91,671.06,246.91,666.8,246.76Z" transform="translate(-39.72 -7.88)"/><path class="cls-11" d="M552.13,235.2l3.86,3.45c1.22,1.1,2.71,2.43,4.45,3.93.89.72,1.79,1.54,2.83,2.31l1.57,1.19,1.72,1.16a31.62,31.62,0,0,0,8.25,3.79,42.46,42.46,0,0,0,10,1.39c1.76,0,3.56,0,5.37-.08s3.65-.23,5.48-.46c3.69-.39,7.4-1,11.12-1.59A287.39,287.39,0,0,1,648,246.63c5.64-.12,10.34-.08,13.63,0l5.17.15-1.34-.24c-.88-.16-2.17-.4-3.81-.65s-3.65-.55-5.95-.81-4.91-.56-7.75-.76-5.94-.44-9.21-.55-6.74-.16-10.32-.16-7.29.19-11.06.42c-.94.06-1.89.1-2.84.18l-2.89.27c-2,.17-3.78.4-5.66.61-3.8.41-7.33.81-10.87,1.12-1.77.17-3.48.18-5.19.29s-3.33.11-4.9.06l-2.33,0c-.78,0-1.48-.14-2.22-.16a15.61,15.61,0,0,1-2.12-.24c-.68-.13-1.37-.19-2-.33a30.08,30.08,0,0,1-7.21-2.48c-2.23-1.07-4.21-2.54-6.14-3.66-1-.57-1.9-1.11-2.8-1.56s-1.78-.87-2.57-1.21a27.91,27.91,0,0,0-3.93-1.33A13.1,13.1,0,0,0,552.13,235.2Z" transform="translate(-39.72 -7.88)"/><path class="cls-10" d="M661.37,229.43l-1.4-.28-4-.79-14.19-2.68c-11.73-2.25-27.35-5.48-42.67-9.88-1.92-.53-3.81-1.15-5.71-1.72s-3.78-1.19-5.64-1.82c-3.73-1.21-7.33-2.6-10.82-3.92l-5.07-2.13c-1.67-.67-3.23-1.5-4.78-2.21l-2.29-1.09c-.74-.37-1.45-.78-2.16-1.17-1.42-.76-2.8-1.48-4.15-2.11a45.88,45.88,0,0,0-7.6-2.92,18.72,18.72,0,0,0-6.22-.7,14.18,14.18,0,0,0-3.93.89c-.87.34-1.31.56-1.31.56l1.59.17a20.51,20.51,0,0,1,3.84.78l1.14.37,1.21.49c.84.35,1.72.75,2.69,1.2a65.93,65.93,0,0,1,6.57,3.41c1.24.72,2.38,1.48,3.71,2.35l1,.68.53.33.26.17.43.24,2.3,1.28c.78.44,1.58.87,2.39,1.29s1.63.86,2.47,1.24c1.69.79,3.43,1.54,5.2,2.34s3.62,1.38,5.48,2.06,3.78,1.22,5.69,1.83c3.82,1.25,7.77,2.22,11.71,3.19l5.91,1.38c2,.42,3.92.83,5.88,1.2,3.91.72,7.75,1.42,11.47,2s7.35,1,10.77,1.47,6.67.74,9.66,1,5.75.48,8.18.69,4.57.31,6.31.44Z" transform="translate(-39.72 -7.88)"/><path class="cls-19" d="M657.19,227.17c-3.77.45,1,3.75,2.66,4.44s5,1.94,11.5-1.07,11.21-16.81,11.21-16.81-5.83,0-8.89-3.34C671.36,215,667.24,226,657.19,227.17Z" transform="translate(-39.72 -7.88)"/><path class="cls-21" d="M435.33,324.46c52.29-8.66,94-54.52,121.89-55.75,10.4-.45,23.4-28.09,9.5-33S497.46,238.63,456,247.85s-32.79,31.21-34,46.29C420.6,310.36,428.29,325.63,435.33,324.46Z" transform="translate(-39.72 -7.88)"/><path class="cls-22" d="M421.94,294.14c1.25-15.08-7.43-37.06,34-46.29,33.55-7.46,76.17-14,98.6-13.66-24.86,13.53-32.93,33.26-25.72,35s22.1-6.82,33.35-2.53a9.25,9.25,0,0,1-5,2c-27.89,1.23-69.6,47.09-121.89,55.75C428.29,325.63,420.6,310.36,421.94,294.14Z" transform="translate(-39.72 -7.88)"/><path class="cls-21" d="M374.53,292.57c-4.68,8.45-2.56,18.78,3.82,22.52,31.21,18.27,54.56,15.77,73.73,6.64,21.55-10.28,72.25-75.7,100.05-86.53,12.12-5.77.69-35.62-7.56-38.55S437.75,244.07,413,259.88C388.5,275.52,378.86,284.75,374.53,292.57Z" transform="translate(-39.72 -7.88)"/><path class="cls-11" d="M372.25,299.19c9.35,12.69,26.43,14,47.35,16.44,30.54,3.5,67-27.52,83.23-45.27s33.75-31.39,40.5-34.2,9.26-8.8,8.13-11.3,2.1-2.55,2.42-.65,3.33.82,3-5.68c1.35,7.3.49,14.2-4.71,16.67-27.8,10.83-78.5,76.25-100.05,86.53-19.17,9.13-42.52,11.63-73.73-6.64C373.58,312.29,371.19,305.81,372.25,299.19Z" transform="translate(-39.72 -7.88)"/><path class="cls-21" d="M566.72,235.69c18.3,4.79,73.42,119.16,108.1,164.21-7.9,12-16.84,8-16.84,8s-20.7-39.11-53.16-67.34-42.18-38.73-47.35-61.64S544.89,230,566.72,235.69Z" transform="translate(-39.72 -7.88)"/><path class="cls-11" d="M658,407.92s-2.51-4.74-7.14-12.11h0a13.53,13.53,0,0,0,15.6,3.12c.32-2.12-2.36-3.55,3.72-5.33,1.59,2.22,3.15,4.33,4.66,6.3C666.92,411.93,658,407.92,658,407.92Z" transform="translate(-39.72 -7.88)"/><path class="cls-11" d="M658,407.92l-.87-2c-.6-1.29-1.44-3.22-2.65-5.6s-2.69-5.26-4.49-8.52c-.89-1.63-1.85-3.37-2.9-5.17l-1.61-2.79c-.56-.94-1.18-1.88-1.79-2.85-1.2-2-2.51-4-3.89-6s-2.83-4.18-4.34-6.34c-3-4.32-6.4-8.77-10-13.29-1.84-2.23-3.81-4.42-5.76-6.68s-4.08-4.42-6.21-6.61-4.43-4.37-6.62-6.39l-6.62-6.18c-2.2-2.05-4.36-4.13-6.51-6.2s-4.29-4.11-6.34-6.18l-3-3.1-2.91-3.11c-.94-1-1.88-2.05-2.8-3.07s-1.76-2.06-2.64-3.07-1.61-2.08-2.41-3.1-1.43-2.11-2.2-3.11-1.34-2.08-2-3.1-1.17-2.11-1.76-3.14a79.38,79.38,0,0,1-5.09-12.68c-.65-2-1.25-4.24-1.84-6.2s-1.19-3.86-1.74-5.61-1.21-3.36-1.71-4.87-1.13-2.85-1.61-4.09c-1-2.46-1.87-4.41-2.5-5.75-.3-.68-.55-1.2-.72-1.55l-.26-.54s0,.76.21,2.17.43,3.48.9,6.09,1.1,5.77,1.91,9.38,1.72,7.67,2.79,12.09a72.59,72.59,0,0,0,4.74,13.87,67.87,67.87,0,0,0,8.78,13.79,138.43,138.43,0,0,0,11.94,12.81c4.3,4.14,8.77,8.23,13.32,12.24l6.82,6c2.28,2,4.47,4.05,6.69,6s4.25,4.16,6.33,6.22,4,4.21,5.9,6.33c3.78,4.24,7.33,8.43,10.55,12.53,1.61,2.05,3.18,4,4.62,6s2.88,3.87,4.18,5.74,2.56,3.64,3.72,5.36,2.24,3.35,3.25,4.9c2,3.1,3.7,5.84,5.07,8.11C656.57,405.24,658,407.92,658,407.92Z" transform="translate(-39.72 -7.88)"/><path class="cls-10" d="M674.82,399.9c-5-6.54-9.64-13.35-14.13-20.23s-8.83-13.89-13.1-20.93c-8.53-14.07-16.79-28.31-25.07-42.53S606,287.76,597.29,273.77c-4.34-7-8.78-13.92-13.55-20.63-2.39-3.35-4.87-6.63-7.56-9.75A48.49,48.49,0,0,0,571.9,239a14.22,14.22,0,0,0-5.18-3.26h0a28,28,0,0,0-6.42-1.22c-2.17-.2-4.36-.27-6.54-.3,1.09.41,2.16.78,3.23,1.14l1.58.51c.52.17,1,.36,1.56.52,1,.32,2,.71,3,1.07a15,15,0,0,1,2.57,1.21l.25.08a14.07,14.07,0,0,1,1.59,1.26c.59.57,1.18,1.21,1.81,1.87,1.23,1.33,2.4,2.86,3.6,4.38,2.38,3.09,4.61,6.42,6.76,9.82s4.29,6.84,6.4,10.32,4.11,7,6.28,10.48,4.23,7,6.32,10.51l6.45,10.47c2.13,3.5,4.27,7,6.45,10.49l6.51,10.48c2.17,3.5,4.31,7,6.53,10.49l6.63,10.43c2.22,3.48,4.43,7,6.73,10.39l6.91,10.29c2.32,3.41,4.65,6.82,7,10.21s4.74,6.77,7.25,10.06,5,6.58,7.6,9.81S672,396.85,674.82,399.9Z" transform="translate(-39.72 -7.88)"/><path class="cls-19" d="M692.89,410.5s-.66-2.47,2.08-6.05c-5,1.66-15.89-.18-21.75-12.47-1.28-2.69-5.72,4.9-3.81,9.36S677.07,418,692.89,410.5Z" transform="translate(-39.72 -7.88)"/><path class="cls-18" d="M663.66,229.68c4.9,10.28-1,16.93-3.53,16.91a2.29,2.29,0,0,0,.51,1.56s9,1,11.81,0,17.86-13.46,22.32-35.53c-5.14-1.68-11.2-1-13.12,1.29S677.51,229.7,663.66,229.68Z" transform="translate(-39.72 -7.88)"/><path class="cls-20" d="M668.4,232.7a1.59,1.59,0,1,0,.75-2.12A1.6,1.6,0,0,0,668.4,232.7Z" transform="translate(-39.72 -7.88)"/><path class="cls-20" d="M673.57,230.23a1.58,1.58,0,1,0,.75-2.11A1.58,1.58,0,0,0,673.57,230.23Z" transform="translate(-39.72 -7.88)"/><path class="cls-20" d="M677.23,226.73a1.59,1.59,0,1,0,.75-2.11A1.59,1.59,0,0,0,677.23,226.73Z" transform="translate(-39.72 -7.88)"/><path class="cls-20" d="M680.22,221.8a1.59,1.59,0,1,0,.75-2.12A1.59,1.59,0,0,0,680.22,221.8Z" transform="translate(-39.72 -7.88)"/><path class="cls-20" d="M682.31,216.9a1.59,1.59,0,1,0,.75-2.11A1.59,1.59,0,0,0,682.31,216.9Z" transform="translate(-39.72 -7.88)"/><path class="cls-21" d="M670.18,232.75a.82.82,0,0,0,.42-1,12.8,12.8,0,0,0-6.68-7.59,5.9,5.9,0,0,0-4.69-.2h0a.81.81,0,0,0-.39,1.07.8.8,0,0,0,1.07.4,4.4,4.4,0,0,1,3.39.23,11.28,11.28,0,0,1,5.78,6.64.82.82,0,0,0,1,.49Z" transform="translate(-39.72 -7.88)"/><path class="cls-21" d="M675.28,230.13a.64.64,0,0,0,.3-.85c-2-4.24-6.33-8.38-9.52-9a2.72,2.72,0,0,0-2.52.49.64.64,0,0,0,.84,1,1.61,1.61,0,0,1,1.42-.2c2.48.52,6.64,4.07,8.62,8.33a.64.64,0,0,0,.85.31Z" transform="translate(-39.72 -7.88)"/><path class="cls-21" d="M679,226.78l.13-.08a.8.8,0,0,0,.18-1.12c-4.87-6.76-9.8-9.47-13.58-7.44a.81.81,0,1,0,.76,1.42c2.91-1.58,7.24,1,11.51,7A.82.82,0,0,0,679,226.78Z" transform="translate(-39.72 -7.88)"/><path class="cls-21" d="M681.92,221.69a.58.58,0,0,0,.23-.18.64.64,0,0,0-.11-.9c-5.12-4-11.44-7.3-14-5.69a.65.65,0,0,0-.2.89.64.64,0,0,0,.88.2c1.48-.89,6.57.93,12.56,5.61A.61.61,0,0,0,681.92,221.69Z" transform="translate(-39.72 -7.88)"/><path class="cls-21" d="M684.1,217a.87.87,0,0,0,.35-.31.83.83,0,0,0-.28-1.13c-4.77-2.9-9.5-5.37-14.84-3.71a.82.82,0,1,0,.49,1.56c4.24-1.31,8.16.31,13.5,3.55A.81.81,0,0,0,684.1,217Z" transform="translate(-39.72 -7.88)"/><path class="cls-20" d="M737.9,400.3a19.26,19.26,0,0,0-3.32-3.25c.68,9.84-14.06,17.13-34.88,24.05-18,6-28,7.34-39,2.12a28.9,28.9,0,0,0,3.75,8.12c5.22,3,33.62,3.17,71.2-21.64C737.51,408.37,739.25,404.45,737.9,400.3Z" transform="translate(-39.72 -7.88)"/><path class="cls-20" d="M737.89,400.27c-6-7.44-17.17-10.09-27.5-4.15-8.45,6.66-5.63,13.22,4.25,25.49a176.41,176.41,0,0,0,21-11.92C737.52,408.35,739.25,404.42,737.89,400.27Z" transform="translate(-39.72 -7.88)"/><path class="cls-18" d="M697.48,419.27a16.62,16.62,0,0,1-1.91-11.39s-12.11,4.51-16.52.89-7.71-10.11-7.71-10.11-11.35,7-17.78,5.17c2.94,4.48,3.52,5.45,4,8.84a37.1,37.1,0,0,0,2.19,7.49S670,429.59,697.48,419.27Z" transform="translate(-39.72 -7.88)"/><path class="cls-20" d="M669.78,405.09a1.64,1.64,0,1,0,.77-2.18A1.64,1.64,0,0,0,669.78,405.09Z" transform="translate(-39.72 -7.88)"/><path class="cls-20" d="M673,409.68a1.63,1.63,0,1,0,.77-2.18A1.63,1.63,0,0,0,673,409.68Z" transform="translate(-39.72 -7.88)"/><path class="cls-20" d="M677.45,413a1.63,1.63,0,0,0,2.18.78,1.64,1.64,0,0,0-1.41-3A1.63,1.63,0,0,0,677.45,413Z" transform="translate(-39.72 -7.88)"/><path class="cls-20" d="M683.36,413.82a1.64,1.64,0,0,0,2.18.78,1.64,1.64,0,1,0-2.18-.78Z" transform="translate(-39.72 -7.88)"/><path class="cls-20" d="M690.09,413a1.64,1.64,0,1,0,.78-2.18A1.64,1.64,0,0,0,690.09,413Z" transform="translate(-39.72 -7.88)"/><path class="cls-21" d="M671.61,405.12h0c4.76-2.47,7.34-4.73,7.67-6.74a2.68,2.68,0,0,0-.77-2.35.8.8,0,0,0-1.14,0,.81.81,0,0,0,0,1.15,1.05,1.05,0,0,1,.34,1c-.23,1.39-2.78,3.47-6.81,5.56a.81.81,0,0,0,.72,1.45Z" transform="translate(-39.72 -7.88)"/><path class="cls-21" d="M674.77,409.71l.06,0c6.63-3.84,8.27-8.07,7-10.38a.82.82,0,0,0-1.1-.31.8.8,0,0,0-.32,1.1c.73,1.31-.36,4.7-6.38,8.18a.81.81,0,0,0,.75,1.44Z" transform="translate(-39.72 -7.88)"/><path class="cls-21" d="M679.27,413a.72.72,0,0,0,.3-.25c4.49-6,5.87-8.8,5.49-11.06a.81.81,0,0,0-1.6.28c.29,1.7-1.12,4.36-5.19,9.81a.82.82,0,0,0,.17,1.14A.81.81,0,0,0,679.27,413Z" transform="translate(-39.72 -7.88)"/><path class="cls-21" d="M685.19,413.85a.81.81,0,0,0,.46-.71c.17-5.56,2.41-8.86,3.16-9.37a.81.81,0,0,0-.91-1.34c-1.13.77-3.68,4.52-3.87,10.66a.8.8,0,0,0,.78.84A.81.81,0,0,0,685.19,413.85Z" transform="translate(-39.72 -7.88)"/><path class="cls-21" d="M691.92,413a.81.81,0,0,0,.41-1c-1.28-3.36-1.21-6.78-.4-8.14.14-.24.29-.4.42-.41a.81.81,0,1,0-.23-1.61,2.2,2.2,0,0,0-1.59,1.19c-1,1.72-1.25,5.55.28,9.55a.82.82,0,0,0,1.05.47Z" transform="translate(-39.72 -7.88)"/><path class="cls-12" d="M279.33,160.61c-26.88,12.21-29.5,37.39-28,77.32s15,54.79,31.67,51.79,29.16-26.2,19.16-45.91c-10.28-20.27-9.69-33.94-7.16-51.12C298.33,170,293.25,154.28,279.33,160.61Z" transform="translate(-39.72 -7.88)"/><path class="cls-11" d="M270.2,165.91c-7.3,8.46-12,21.32-14.12,41-2.75,25.87-7,71.16,27.14,82.81l-.22.05c-16.63,3-30.17-11.86-31.67-51.79C250,203.08,251.86,179.48,270.2,165.91Z" transform="translate(-39.72 -7.88)"/><path class="cls-10" d="M294.46,196.55c-1.26,9.63-1.65,18.35.55,28.1h0c-6.08-10-41.92-1.3-42.6,26.88-.53-4.17-.9-8.7-1.08-13.6a274.43,274.43,0,0,1,.15-30C260.94,186.2,288.44,187.31,294.46,196.55Z" transform="translate(-39.72 -7.88)"/><path class="cls-10" d="M292.71,193.11c1.37.87.75-8.5-3.38-12.38-3.74-3.51,5.2-11.07,6.08,8.76-.12,1-.25,2.11-.41,3.2-.61,4.12-1.1,8.05-1.36,11.91-.22-9.34-5.56-16.24-13.68-17.37C276.83,186.61,287,182.73,292.71,193.11Z" transform="translate(-39.72 -7.88)"/><path class="cls-10" d="M268.8,240.52c-5.14,4.46,18-8.39,29.44,1.09-.81-3.11-3.87-8.63-12.85-11.55,4.31,2.09,5.1,4.44,4.72,4.72S279.27,231.46,268.8,240.52Z" transform="translate(-39.72 -7.88)"/><path class="cls-12" d="M298.5,243.81c-19.57-11.43-45.71,18-31.23,40.3,8.36,12.89,43.17,18.91,73.31,12.25S381,272,375.66,260C372,253.69,362,251.69,352,255.36S320.16,256.48,298.5,243.81Z" transform="translate(-39.72 -7.88)"/><path class="cls-11" d="M289.33,291.36c18.53,5.12,71.12,3.33,86.24-31.48l.09.14c5.33,12-4.94,29.67-35.08,36.34s-64.95.64-73.31-12.25a26,26,0,0,1-2.56-23.29C264.5,271.36,268.83,285.69,289.33,291.36Z" transform="translate(-39.72 -7.88)"/><path class="cls-10" d="M298.5,243.81C320.16,256.48,342,259,352,255.36s20-1.67,23.66,4.66a15.57,15.57,0,0,1,1.15,4c-3.4-8.23-15.24-7.49-33.85-4.86s-35.5-7.5-45.75-11.5-18.63-1.13-28.86,6C275.29,243.44,287.86,237.6,298.5,243.81Z" transform="translate(-39.72 -7.88)"/><path class="cls-15" d="M285.3,112.51c-13.22-11.27-20.95-13.3-24.09-32.44S269,50,280.57,43.18c11.25-6.63,26.27-11.48,46-7.27,13.07,2.79,15.16,37.51,11.94,58.93S307.32,131.29,285.3,112.51Z" transform="translate(-39.72 -7.88)"/><path class="cls-15" d="M286.33,107.4c5.32,12,8.82,16.88,25.19,22.64s26.61,8.33,33.77,6.62,13.19-2.16,12.51-6.3-3.12-16.61.17-30.56-3.86-13.53-2.43-22.09,1.95-9.7-.82-13.67S342,41.34,333,37.67s-29.19-4.24-43,4.74S269.34,69.05,286.33,107.4Z" transform="translate(-39.72 -7.88)"/><path class="cls-23" d="M290.09,42.41c13.76-9,34-8.41,43-4.74a15,15,0,0,1,3.4,2c-1.36-.4-3.17-.17-5.46,1.58-4.12-.3-11.3,1.23-15.87,5.25s-10.09-1.54-12-.42,4,5.37,4,5.37c-1.38,3.06,1.75,12.3,1.75,12.3l.74,2.34-8-1.15.39,7s-4.81,11.33-3.84,16.17,1.34,25.45,6.35,29.05,32.68,15.71,36.35,16.53c3.08.68,12.89.5,17-2.54-.27,3.34-5.92,3.86-12.54,5.43-7.16,1.71-17.4-.86-33.77-6.62s-19.87-10.65-25.19-22.64C269.34,69.05,276.34,51.39,290.09,42.41Z" transform="translate(-39.72 -7.88)"/><path class="cls-10" d="M345.29,136.66l-.79.08a20.14,20.14,0,0,1-2.21.1,28.78,28.78,0,0,1-3.4-.25c-1.31-.17-2.76-.47-4.34-.82s-3.28-.82-5.06-1.36-3.64-1.18-5.56-1.87-3.91-1.36-5.92-2.11-4.07-1.54-6.05-2.32c-1-.42-2-.82-3-1.25s-1.95-.79-2.88-1.26-1.88-.88-2.76-1.36-1.75-.94-2.6-1.41a40.28,40.28,0,0,1-4.45-3.18,30.23,30.23,0,0,1-3.37-3.58c-.48-.6-.91-1.22-1.33-1.8s-.79-1.17-1.15-1.71c-.72-1.09-1.42-2-2-2.8s-1.12-1.36-1.48-1.76c-.17-.2-.33-.35-.43-.45l-.16-.15s.44,1,1.25,2.74c.41.87.92,1.92,1.54,3.1.31.59.67,1.2,1,1.85s.8,1.32,1.27,2a27.6,27.6,0,0,0,3.42,4,30.47,30.47,0,0,0,4.71,3.57,49.69,49.69,0,0,0,5.64,2.88c2,.87,4,1.64,6.08,2.38,8.26,2.92,16.63,5.61,23.13,6.67a40.29,40.29,0,0,0,4.45.51,27.74,27.74,0,0,0,3.45,0,17.7,17.7,0,0,0,2.21-.3Z" transform="translate(-39.72 -7.88)"/><path class="cls-24" d="M259.86,71.82c-3.22-11.84-1-14.72,5.66-24.85a23.14,23.14,0,0,1,16.86-10.6s1-5.6,10.43-9.81,15.59-6.4,17.67-9.93c4.52-.74,7.27,3.06,7.27,3.06a27.5,27.5,0,0,1,10.89-4c4.65-.77,9.26,4.66,10.95,13.37,5.23-.49,9.92,3.78,8.68,14.88a24.1,24.1,0,0,0-4-1.62s-6.18-9.33-13.31-1c-7.25-3.73-14.7,3.47-22.73,2.26s-7.38,6.3-7.38,6.3Z" transform="translate(-39.72 -7.88)"/><path class="cls-24" d="M290.74,100.37s-2.25-9.45-1.56-13.86,6.74-9.24,11.09-15.29c-1.19-7.27-4-17.07.6-21.37-13.29-.12-32.15,9.61-41.59,22.75-3.24,4.52.36,17.87.36,17.87a23,23,0,0,1,5.85,4.88c11.11,12.5,7.79,15.37,14.6,17.35C281.27,104.94,290.74,100.37,290.74,100.37Z" transform="translate(-39.72 -7.88)"/><path class="cls-24" d="M314.24,69.88s13.21-6.15,19.08-12.16c4.08,2,3.6,7,3.6,7S332.6,69.26,317,71.81C313.67,72.36,314.24,69.88,314.24,69.88Z" transform="translate(-39.72 -7.88)"/><path class="cls-24" d="M343.88,58.42A13.72,13.72,0,0,1,345,65s9.54-.41,12.58,4.63c.64-1.75-1.42-5.32-1.42-5.32C352.89,58.35,343.88,58.42,343.88,58.42Z" transform="translate(-39.72 -7.88)"/><path class="cls-11" d="M337.85,113.58c-1.27,1.77-.45,2.93-.45,2.93a1.51,1.51,0,0,1,2-1.33c1.88.49,2.57,1.51,5.21,1s7.12-1.56,9.83-1.61c1.81,0,1-2,1-2s-1.24.93-5.41,1.81a12.63,12.63,0,0,1-8.54-.66C338.91,112.75,337.85,113.58,337.85,113.58Z" transform="translate(-39.72 -7.88)"/><path class="cls-11" d="M351.14,118.51c-4.14,1-4.65,2-4.7,2.9s4.06.06,6.6,1,1.9-3,2.76-4.63C353.87,118.53,353.52,117.93,351.14,118.51Z" transform="translate(-39.72 -7.88)"/><path class="cls-15" d="M287.18,112.86c-6.26,1-9.44-2.29-14.34-11s-1.95-11.69.75-14.08,8.08.75,8.08.75l6.9,23.42A1.67,1.67,0,0,1,287.18,112.86Z" transform="translate(-39.72 -7.88)"/><path class="cls-10" d="M287.18,112.86l-.49,0a10,10,0,0,1-1.39-.09,9,9,0,0,1-2-.45A8.09,8.09,0,0,1,281,111a11.09,11.09,0,0,1-2.12-2.19,25.43,25.43,0,0,1-1.88-3c-.63-1.06-1.23-2.21-1.82-3.39l-.87-1.76c-.27-.61-.62-1.27-.8-1.81a17.32,17.32,0,0,1-1-3.41,7.15,7.15,0,0,1,.06-2.87,6.5,6.5,0,0,1,1.31-2.32c.15-.19.34-.38.51-.57l.28-.29.13-.14,0,0h0c-.31.24-.08.06-.15.11h0l.08-.07.31-.28.08-.06h.05s0,0,.07-.08l.21-.08a5.09,5.09,0,0,1,2.07-.24l2,.06c1.21,0,2,0,2,0a12.86,12.86,0,0,0-1.7-.81,13.38,13.38,0,0,0-2.06-.64,6.44,6.44,0,0,0-2.78-.06,5.61,5.61,0,0,0-2.69,1.84A7.55,7.55,0,0,0,270.5,92a8.11,8.11,0,0,0-.07,3.92,16.89,16.89,0,0,0,1.33,3.85c.57,1.24,1.26,2.43,1.93,3.6s1.38,2.3,2.1,3.35a26.82,26.82,0,0,0,2.27,2.92,12.31,12.31,0,0,0,2.52,2.14,8.25,8.25,0,0,0,2.58,1.06,9.11,9.11,0,0,0,2.15.19,10.56,10.56,0,0,0,1.39-.1Z" transform="translate(-39.72 -7.88)"/><path class="cls-10" d="M300.87,49.85l-2.1.08c-.67,0-1.47.15-2.4.24s-1.95.34-3.08.53-2.32.57-3.58.93-2.58.8-3.9,1.34-2.7,1.12-4.07,1.72c-.68.32-1.35.68-2,1s-1.36.69-2,1.08l-2,1.14-1.91,1.22c-1.27.81-2.46,1.69-3.62,2.53s-2.24,1.72-3.2,2.62l-1.43,1.26-1.27,1.26a29.06,29.06,0,0,0-2.15,2.28,22.06,22.06,0,0,0-1.55,1.84l-1.29,1.66.53-.29c.33-.2.84-.47,1.41-.85s1.31-.8,2.1-1.3L266,68.52c1-.6,2-1.2,3.08-1.85s2.24-1.3,3.37-2l3.6-2.09c.61-.35,1.24-.68,1.84-1.07l1.88-1c.61-.38,1.24-.72,1.87-1.05s1.24-.71,1.87-1,1.24-.64,1.85-1,1.22-.61,1.81-1c1.2-.65,2.37-1.2,3.48-1.79.55-.32,1.12-.52,1.64-.81s1-.58,1.55-.79,1-.42,1.46-.66a11.84,11.84,0,0,1,1.31-.63c.84-.33,1.55-.77,2.23-1s1.18-.5,1.53-.65S300.87,49.85,300.87,49.85Z" transform="translate(-39.72 -7.88)"/><path class="cls-24" d="M344.91,74.49l17.51-1.78L362.8,75l-.23.74s.72,7.08,0,8.25-11.44,3.18-13.7,1.25-1.19-8.21-3.5-7.83Z" transform="translate(-39.72 -7.88)"/><path class="cls-15" d="M341,97.53c-1.12,1.56-.27,2.7.75,4.57s2.65,1.43,4.62.57,9.05-.33,12.29-4.85c1.62-2.25-1.17-3.34-3.54-6s-2.41-4.39-6.19-8-4.14-7.46-3-10a5.7,5.7,0,0,0-7.59,1.25C339,81.32,341,97.53,341,97.53Z" transform="translate(-39.72 -7.88)"/><path class="cls-11" d="M345.48,100c1.61-.53,5-.7,7.8-1.22,2.25-.42,4.62-.91,5.76-2.8a1.89,1.89,0,0,1-.38,1.85c-3.24,4.52-10.32,4-12.29,4.85s-3.61,1.3-4.62-.57-1.87-3-.75-4.57c.1,1,1.39,2,1.93,2.87S343.88,100.51,345.48,100Z" transform="translate(-39.72 -7.88)"/><path class="cls-10" d="M358.66,97.82l.17-.27a2.17,2.17,0,0,0,.3-.86,2,2,0,0,0-.43-1.33A9.21,9.21,0,0,0,357.42,94a21.72,21.72,0,0,1-3.23-3.31c-1-1.36-1.83-3-3-4.4a23,23,0,0,0-1.8-2,22.68,22.68,0,0,1-1.79-1.9,10.39,10.39,0,0,1-2.07-4.1,7.39,7.39,0,0,1-.05-3.24,5.82,5.82,0,0,1,.26-.88l.12-.31-.19.28a4.7,4.7,0,0,0-.46.85,6.51,6.51,0,0,0-.43,1.47,7.33,7.33,0,0,0-.1,2,11.74,11.74,0,0,0,1.75,4.84c.26.38.6.86.86,1.17l.85,1c.52.66,1.05,1.3,1.49,2s.84,1.38,1.27,2.13A15.91,15.91,0,0,0,352.44,92a8.7,8.7,0,0,0,.92,1.07c.35.35.68.64,1,.92a16.62,16.62,0,0,0,1.86,1.33c.55.35,1,.67,1.28.86s.51.2.72.4a1.32,1.32,0,0,1,.34.78C358.62,97.66,358.66,97.82,358.66,97.82Z" transform="translate(-39.72 -7.88)"/><path class="cls-11" d="M345.7,77.42c-1.11.18-1.92.81-5.26,11-1.78,1.78-18.84,6.24-18.84,6.24l1-2.56a28,28,0,0,1-5.25.36c-2.09-.16-5-5.59-5-5.59L282,89.55l-.29-1,33.55-8.14,29.52-3.6Z" transform="translate(-39.72 -7.88)"/><path class="cls-24" d="M346.38,74.34,316.12,77,313,78.23l.69,4.2,1.81-.17s2.47,6.41,4.68,8,15.36-1,18.44-2.25,2.77-9.93,6.75-10.58Z" transform="translate(-39.72 -7.88)"/><path class="cls-25" d="M319.11,79.41c.51,3.11,1.51,9.09,3.89,9.06s12.93-.82,15.1-2.68,2.31-8,1.75-8.48S319.11,79.41,319.11,79.41Z" transform="translate(-39.72 -7.88)"/><polygon class="cls-19" points="241.95 80.67 273.3 70.36 273.99 74.56 242.25 81.67 241.95 80.67"/><polygon class="cls-20" points="270.23 71.37 269.41 73.37 256.13 77.13 256.5 75.89 270.23 71.37"/><path class="cls-25" d="M349.62,76.23a89.69,89.69,0,0,1,11.5-1.31s1,7.45,0,8.21-11,2-11.7.35c-.47-1.19-.34-4.37-.34-6A1.35,1.35,0,0,1,349.62,76.23Z" transform="translate(-39.72 -7.88)"/><path class="cls-20" d="M357.17,75.2l-.43,8.86a31.91,31.91,0,0,1-4.6.22l.94-8.64C354.46,75.46,355.9,75.31,357.17,75.2Z" transform="translate(-39.72 -7.88)"/><path class="cls-20" d="M332,85.5c3.94-.65,4.74-1.27,4.77-1.3.81-.69,1.24-3.17,1.3-4.8-3,.22-9.82,1-16.48,1.82.67,3.42,1.24,4.71,1.65,5.15A79.79,79.79,0,0,0,332,85.5Z" transform="translate(-39.72 -7.88)"/><path class="cls-20" d="M358.13,81.75c.56-.09,1-.18,1.28-.25a31.08,31.08,0,0,0-.15-4.36c-2,.14-5,.4-7.51.81l-.62.11v.39a35.37,35.37,0,0,0,.09,3.66,27.35,27.35,0,0,0,6.91-.36Z" transform="translate(-39.72 -7.88)"/><path class="cls-20" d="M322.52,88.38l5.12-10c3.07-.36,6.35-.72,8.74-.93l-3.06,9.94A77.56,77.56,0,0,1,323,88.47,1.28,1.28,0,0,1,322.52,88.38Z" transform="translate(-39.72 -7.88)"/><polygon class="cls-20" points="306.66 66.46 322.7 64.83 322.79 65.36 277.77 70.13 277.48 74.06 276.41 69.14 306.66 66.46 306.66 66.46"/><polygon class="cls-11" points="268.46 86.54 273.3 91.68 285.54 95.87 272.49 95.29 268.46 86.54"/><rect class="cls-24" x="330.65" y="80.32" width="5.29" height="3.06" transform="translate(635.72 100.82) rotate(170.69)"/><rect class="cls-24" x="351.93" y="78.01" width="4.38" height="2.53" transform="translate(676.68 92.35) rotate(170.69)"/><path class="cls-26" d="M311.46,42.06c-3.4.67-4.36-8.73-1.08-14.18s3.05-8.69,1.87-10.44c1.86.44,3.2,3.2,3,4.58.85-.29.88-2.16.55-2.55,1,.06,2.4,1.25,2.8,3.19,1.79-2.49,8.57-6.07,12.37-6s8.2,9,8.06,14.47-6.93,7.77-12.15,5.42c2.82.43,7.11-1.17,7.52-5.48s-3.62-7.53-6.94-5.94-5.82,7.21-5.13,10.08,2.32,3.49,2.32,3.49-4,1.41-5.78-.54-2.91-5-2-9.14c0,0-6,5-1.42,11.78-2-.87-4.87-2.34-5-8.43C309,33.33,308.82,42,311.46,42.06Z" transform="translate(-39.72 -7.88)"/><path class="cls-26" d="M340.9,31.07c2.75,1.29,5.41,6,6.08,10.38,1.67-4.94-.94-13-6.89-12A2.36,2.36,0,0,0,340.9,31.07Z" transform="translate(-39.72 -7.88)"/><path class="cls-25" d="M368.42,254.52c3.91-.21,5.24-3.31,7.41-4s6.47.42,11.38,7c4.62,6.23,4.62,12.41.2,14.74s-12.47,4.66-15.44,7.25S359.09,255,368.42,254.52Z" transform="translate(-39.72 -7.88)"/><path class="cls-22" d="M377.6,251c-3.08,1.48-1.89,10.5,2,15.31s9.88,5.25,10.44.94S382.56,248.61,377.6,251Z" transform="translate(-39.72 -7.88)"/><path class="cls-15" d="M379,251.75c6-3.19,3.77-6.08,10.06-14.5s7.08-10.53,11.91-11,.82,9.49,4.49,16-1.23,8.49-6.37,15.66-12.26,9-15.84,7.34S373.77,254.54,379,251.75Z" transform="translate(-39.72 -7.88)"/><path class="cls-11" d="M405.26,250.34s-.35.3-1,.79l-1.11.88c-.42.35-.94.7-1.45,1.15-1,.88-2.23,1.94-3.46,3.18l-.44.48-.41.43c-.3.3-.61.65-.9.92s-.58.51-.86.78l-.93.77c-.64.48-1.29.93-1.93,1.35s-1.3.77-1.92,1.13-1.24.65-1.83.94-1.15.51-1.69.7-1,.28-1.48.42l-.64.2-.59.22c-.39.17-.71.29-1,.39l-.42.18a8.17,8.17,0,0,0,1.16.37,6.53,6.53,0,0,0,1.39.18,10.6,10.6,0,0,0,1.81-.1,13.8,13.8,0,0,0,4.31-1.43,18.89,18.89,0,0,0,4.24-3l.94-.94.88-1c.55-.67,1.07-1.36,1.56-2,1-1.33,2-2.52,2.87-3.53s1.61-1.84,2.09-2.45S405.26,250.34,405.26,250.34Z" transform="translate(-39.72 -7.88)"/><path class="cls-15" d="M397,227.13c4.8-2.14,8.68-8.74,10.46-8.32s4.19,5.49,3,7.29-2.72.5-5.72,3.68-3.27,5.33-5.8,3.93S393.32,228.76,397,227.13Z" transform="translate(-39.72 -7.88)"/><path class="cls-15" d="M399.86,231c5.12-1.22,13.14-5.18,16.47-4.61a28.49,28.49,0,0,0,8.12-.16c1.33-.15,3.92.28,5.5.32.71.65-.48,3.82-3.18,5.42-.78,2,1.38,2.75-2.59,5.57s-8.38,5.89-9.3,7.09-6.1,4.42-10.43,6.54-6.21-1.56-6.25-4-3.54-5.84-2.75-7.94-1.25-4.43.57-6.28S397.83,231.52,399.86,231Z" transform="translate(-39.72 -7.88)"/><path class="cls-15" d="M406.39,219.16c3-.75,8.53-2.78,10.16-3.1s3.79,1.7,4,3.79-2.7,3.34-5.21,4.2-3.51.81-5.57,2.38C408.47,227.45,401.56,220.35,406.39,219.16Z" transform="translate(-39.72 -7.88)"/><path class="cls-15" d="M415.07,216.66c-.86.9-.48,4.19,1.41,5.64s2.42.53,4.14,1.52,4,.56,7.31-.41c1.35-1,2-4,1.75-4.89s-1.92-1.82-1.92-1.82-4.31.84-5.65-.34S416.55,215.1,415.07,216.66Z" transform="translate(-39.72 -7.88)"/><path class="cls-10" d="M398.33,236.76s.09.14.25.34a3.55,3.55,0,0,0,.73.72,3.76,3.76,0,0,0,1.35.61,6.55,6.55,0,0,0,2,0,13.67,13.67,0,0,0,4.13-1.29,19.57,19.57,0,0,0,2-1.11,22.13,22.13,0,0,0,2-1.3c.64-.46,1.28-.91,1.86-1.39s1.12-.9,1.66-1.26a18.25,18.25,0,0,1,3.17-1.84c.52-.24,1-.53,1.46-.76s.78-.48,1.07-.67a10.09,10.09,0,0,0,.87-.67,20.07,20.07,0,0,1-3.62,1.19,17.45,17.45,0,0,0-3.68,1.31c-1.27.65-2.54,1.5-3.86,2.27s-2.67,1.48-3.94,2.14a21.68,21.68,0,0,1-3.57,1.57,7.82,7.82,0,0,1-2.74.24Z" transform="translate(-39.72 -7.88)"/><path class="cls-10" d="M402.38,244a2.8,2.8,0,0,0,.38.23,2.67,2.67,0,0,0,1.13.33c.24,0,.5,0,.78,0a5.69,5.69,0,0,0,.86-.14,12,12,0,0,0,1.83-.69,18,18,0,0,0,2-1,17.55,17.55,0,0,0,2.06-1.29c.7-.47,1.36-1,2-1.54l1-.76.51-.4.45-.34a33.31,33.31,0,0,1,4.21-2.47,22,22,0,0,0,2.16-1.35,15,15,0,0,0,1.77-1.5c.5-.47.88-1,1.21-1.25a1.6,1.6,0,0,1,.39-.26h.3l.26,0a3.83,3.83,0,0,1,.82.28l.28.17a1.9,1.9,0,0,0-.23-.23,3,3,0,0,0-.74-.48,1.4,1.4,0,0,0-1.34,0,13.29,13.29,0,0,0-1.49,1,15.09,15.09,0,0,1-1.8,1.14,22,22,0,0,1-2.18,1,28.47,28.47,0,0,0-4.7,2.14c-1.52.91-2.9,2-4.24,3s-2.59,1.88-3.7,2.59c-.56.35-1.08.66-1.55.92s-.9.44-1.26.59a5.53,5.53,0,0,1-.85.27Z" transform="translate(-39.72 -7.88)"/><path class="cls-10" d="M396,233a3.07,3.07,0,0,0,.51-.06c.31,0,.74-.15,1.2-.22a1.4,1.4,0,0,1,.61,0,2.66,2.66,0,0,0,.67.09,14.74,14.74,0,0,0,2.37-.21c.9-.16,1.84-.32,2.77-.58a25.66,25.66,0,0,0,2.9-.86c1-.31,2-.7,3-1.09s2-.76,2.94-1.1a14.43,14.43,0,0,1,2.68-.7,9.71,9.71,0,0,1,1.4,0c.63,0,1.17,0,1.74,0a35.43,35.43,0,0,0,5.78-1.08,13.6,13.6,0,0,1,2.1-.29l1.76-.12a15.32,15.32,0,0,0,1.54-.19s-.56,0-1.52-.1l-1.73-.17a12.66,12.66,0,0,0-2.25,0,35.45,35.45,0,0,1-5.63.39c-.52,0-1.05,0-1.58-.11s-1.05-.15-1.6-.18a13.39,13.39,0,0,0-3.24.54c-2.13.58-4.19,1.36-6.14,2.05s-3.76,1.35-5.36,1.8c-.79.22-1.53.4-2.19.52a3.12,3.12,0,0,0-1.58.69,10.15,10.15,0,0,0-.82.75Z" transform="translate(-39.72 -7.88)"/><path class="cls-10" d="M379,251.75a16.93,16.93,0,0,0,1.61-.77,5.57,5.57,0,0,0,.78-.47,7.72,7.72,0,0,0,.72-.56,8.19,8.19,0,0,0,1.27-1.36,12.77,12.77,0,0,0,1-1.55c.6-1,1.15-2.08,1.7-3.09s1.18-2,1.83-2.9,1.36-1.83,2.1-2.71,1.53-1.79,2.27-2.71c1.47-1.82,2.92-3.75,4.41-5.26l.49-1.14s0,.08.13,0a1.79,1.79,0,0,1,.32-.17l.69-.3c.26-.11.62-.3.9-.45s.54-.31.8-.48c.52-.33,1-.68,1.48-1a54.8,54.8,0,0,0,4.89-4.56l.63-1.13a.79.79,0,0,1-.24.42c-.08,0,0,0,.13,0l.43-.13.28-.2c.08-.06.15-.08.06-.05a1.56,1.56,0,0,1-.31.06h-.32l-.23-.05.08,0,.58.21.68-.22c1.31-.43,2.63-.84,3.92-1.33s2.6-.93,3.9-1.43l.5-.19.13-.12a1.83,1.83,0,0,1,.27-.21,4,4,0,0,1,.46-.21,6.68,6.68,0,0,1,1.17-.28,6.79,6.79,0,0,1,2.35.12c.05,0,.15,0,.16.05h.07l.13.1h0l0,0,.09,0,.22.11.37.15a3.39,3.39,0,0,0,.63.16,4.5,4.5,0,0,0,1,.05c.32,0,.62-.07.92-.11a8.4,8.4,0,0,0,1.68-.51,7.83,7.83,0,0,0,1.53-.83,16.24,16.24,0,0,1-3.19.28,6,6,0,0,1-1.58-.2,2.09,2.09,0,0,1-.73-.32,6,6,0,0,0-.67-.44,6.84,6.84,0,0,0-3.13-.53,5.84,5.84,0,0,0-3,.87h0l-7.88,2.49h0a.86.86,0,0,0-.63,0,2.93,2.93,0,0,0-.58.31h0a2.94,2.94,0,0,0-1,.46,1.62,1.62,0,0,0-.58.91h0a61.86,61.86,0,0,1-4.63,4.53,14.64,14.64,0,0,1-2.67,1.82,6.33,6.33,0,0,0-1.41.8,2,2,0,0,0-.75,1.38h0c-1.57,1.76-2.9,3.7-4.31,5.59l-2.09,2.84c-.7,1-1.36,1.92-2,2.93a34.4,34.4,0,0,0-1.68,3.1c-.51,1.06-1,2.15-1.45,3.22a13.73,13.73,0,0,1-.83,1.56,8.07,8.07,0,0,1-1.09,1.38,6,6,0,0,1-.65.59,6.32,6.32,0,0,1-.71.54A16.26,16.26,0,0,1,379,251.75Z" transform="translate(-39.72 -7.88)"/><path class="cls-11" d="M426.77,232l-.19.34a3.18,3.18,0,0,0-.27,1.15,2.52,2.52,0,0,1-.34,1.44,5.09,5.09,0,0,1-1.45,1.21c-.62.4-1.4.8-2.23,1.25l-2.6,1.41L417,240.45a27.8,27.8,0,0,0-2.82,2l-.38.32a5.4,5.4,0,0,0-.43.42l-.11.12-.06.07.08-.1h0l0,0-.15.14c-.11.12-.1.06-.15.1-.25.18-.68.5-1.08.75-.83.53-1.69,1.05-2.51,1.6s-1.62,1-2.37,1.57-1.46,1-2.11,1.47-1.34.9-1.66,1.17-.79.59-1.15.81a5,5,0,0,1-1.44.64,2.11,2.11,0,0,0,.36.15,3.42,3.42,0,0,0,1.08.17,4.88,4.88,0,0,0,1.67-.32,17.62,17.62,0,0,0,2-1c1.45-.75,3.11-1.66,4.84-2.73.87-.53,1.75-1.09,2.62-1.71.44-.31.86-.64,1.27-1s.71-.82,1.13-1.16c.81-.73,1.68-1.38,2.53-2l2.53-1.84,2.39-1.7c.76-.54,1.49-1,2.11-1.56a4.82,4.82,0,0,0,1.39-1.7,3.33,3.33,0,0,0,.1-1.69,3.31,3.31,0,0,1,0-1.09Z" transform="translate(-39.72 -7.88)"/><path class="cls-10" d="M367.62,254.64a3.35,3.35,0,0,1,.8-.12c3.91-.21,5.24-3.31,7.41-4-3.28,2.4-2.12,10.13,1.19,15.71,2.78,4.69,5.87,6.85,9.29,6.63-3.53,1.67-8.57,3.35-11.93,5.13h0C369.84,278.35,361.91,258,367.62,254.64Z" transform="translate(-39.72 -7.88)"/><path class="cls-11" d="M389.07,276.74c-9.41,10.28-13,37.41,13.95,49.18a106.47,106.47,0,0,1-24.67-10.83c-6.38-3.74-8.5-14.07-3.82-22.52C377,288.08,381.26,283.12,389.07,276.74Z" transform="translate(-39.72 -7.88)"/><text class="cls-27" transform="translate(424.13 41.97) rotate(-15.22)">HTML</text><text class="cls-27" transform="translate(131.86 23.25) rotate(-3.58)">JS</text><text class="cls-28" transform="translate(682.56 312.7) rotate(-3.58)">PHP</text><text class="cls-27" transform="translate(639.09 38.23) rotate(28.16)">CMS</text><text class="cls-27" transform="matrix(0.83, -0.56, 0.56, 0.83, 50.15, 97.88)">NODE</text></svg>